<svg width="94" height="42" viewBox="0 0 94 42" fill="none" xmlns="http://www.w3.org/2000/svg">
<path d="M42.8302 1.4V41H33.8902V17.69L34.2802 11.06L32.7502 18.65L26.0902 37.82H17.3002L10.6702 18.65L9.17016 11.06L9.56016 17.69V41H0.590156V1.4H13.1902L21.1702 27.83L21.7102 30.98L22.2502 27.83L30.2302 1.4H42.8302ZM62.7661 18.86H82.9561V21.38C82.9561 24.22 82.4761 26.87 81.5161 29.33C80.5761 31.79 79.2261 33.95 77.4661 35.81C75.7061 37.67 73.6061 39.12 71.1661 40.16C68.7261 41.2 66.0261 41.72 63.0661 41.72C60.0061 41.72 57.2261 41.2 54.7261 40.16C52.2461 39.1 50.1061 37.63 48.3061 35.75C46.5061 33.87 45.1261 31.69 44.1661 29.21C43.2061 26.71 42.7261 24.03 42.7261 21.17C42.7261 18.33 43.2061 15.67 44.1661 13.19C45.1261 10.69 46.5061 8.51 48.3061 6.65C50.1061 4.77 52.2461 3.31 54.7261 2.27C57.2261 1.21 60.0061 0.679997 63.0661 0.679997C65.5661 0.679997 67.7661 0.949998 69.6661 1.49C71.5861 2.03 73.2361 2.75 74.6161 3.65C75.9961 4.55 77.1661 5.54 78.1261 6.62C79.0861 7.68 79.8861 8.72 80.5261 9.74L72.0061 13.76C71.1861 12.5 70.0661 11.4 68.6461 10.46C67.2461 9.52 65.3861 9.05 63.0661 9.05C61.4461 9.05 59.9561 9.37 58.5961 10.01C57.2561 10.65 56.0961 11.53 55.1161 12.65C54.1361 13.75 53.3761 15.04 52.8361 16.52C52.3161 17.98 52.0561 19.53 52.0561 21.17C52.0561 22.83 52.3161 24.39 52.8361 25.85C53.3761 27.31 54.1361 28.6 55.1161 29.72C56.0961 30.84 57.2561 31.72 58.5961 32.36C59.9561 32.98 61.4461 33.29 63.0661 33.29C64.4861 33.29 65.7761 33.11 66.9361 32.75C68.0961 32.39 69.0961 31.87 69.9361 31.19C70.7961 30.51 71.4661 29.71 71.9461 28.79C72.4461 27.85 72.7461 26.82 72.8461 25.7H62.7661V18.86ZM88.2572 41.72C86.7772 41.72 85.4972 41.19 84.4172 40.13C83.3572 39.05 82.8272 37.77 82.8272 36.29C82.8272 34.77 83.3572 33.48 84.4172 32.42C85.4972 31.34 86.7772 30.8 88.2572 30.8C89.7772 30.8 91.0672 31.34 92.1272 32.42C93.1872 33.48 93.7172 34.77 93.7172 36.29C93.7172 37.77 93.1872 39.05 92.1272 40.13C91.0672 41.19 89.7772 41.72 88.2572 41.72Z" fill="url(#paint0_linear_1_3)"/>
<defs>
<linearGradient id="paint0_linear_1_3" x1="48" y1="-28" x2="48" y2="81" gradientUnits="userSpaceOnUse">
<stop stop-color="#67E400"/>
<stop offset="0.9998" stop-color="#53B700"/>
<stop offset="0.9999" stop-color="#48A000"/>
<stop offset="1" stop-color="#397E00"/>
</linearGradient>
</defs>
</svg>
